<svg xmlns="http://www.w3.org/2000/svg" width="107.038" height="120" viewBox="0 0 107.038 120">
  <g id="checklist" transform="translate(-32 -4.999)">
    <path id="Path_595" data-name="Path 595" d="M80.336,232.844a1.434,1.434,0,0,0-1.434,1.434v.63H68.862v-10.04h9.192a1.434,1.434,0,1,0,0-2.868H67.328a1.342,1.342,0,0,0-1.334,1.423v13a1.289,1.289,0,0,0,1.334,1.359h13a1.383,1.383,0,0,0,1.448-1.359v-2.139a1.434,1.434,0,0,0-1.434-1.434Z" transform="translate(-25.866 -165.13)"/>
    <path id="Path_596" data-name="Path 596" d="M99.373,236.122l-4.665,3.911-1.5-1.5a1.434,1.434,0,1,0-2.028,2.028l2.431,2.431a1.434,1.434,0,0,0,1.936.085l5.672-4.755a1.435,1.435,0,0,0-1.843-2.2Z" transform="translate(-44.713 -175.62)"/>
    <path id="Path_597" data-name="Path 597" d="M171.007,237H153a1.434,1.434,0,0,0,0,2.868h18.01a1.434,1.434,0,0,0,0-2.868Z" transform="translate(-90.982 -176.544)"/>
    <path id="Path_598" data-name="Path 598" d="M80.342,318H67.434A1.434,1.434,0,0,0,66,319.434v12.908a1.434,1.434,0,0,0,1.434,1.434H80.342a1.434,1.434,0,0,0,1.434-1.434V319.434A1.434,1.434,0,0,0,80.342,318Zm-1.434,13.147H68.868V320.868h10.04Z" transform="translate(-25.873 -238.182)"/>
    <path id="Path_599" data-name="Path 599" d="M65.994,128.349v13a1.348,1.348,0,0,0,1.334,1.429h13a1.442,1.442,0,0,0,1.448-1.429V139.2a1.434,1.434,0,0,0-2.868,0v.7H68.862v-10.04h9.192a1.434,1.434,0,0,0,0-2.868H67.328a1.283,1.283,0,0,0-1.334,1.352Z" transform="translate(-25.867 -92.835)"/>
    <path id="Path_600" data-name="Path 600" d="M99.373,140.827l-4.665,3.911-1.5-1.5a1.434,1.434,0,1,0-2.028,2.028l2.431,2.431a1.434,1.434,0,0,0,1.936.085l5.672-4.755a1.435,1.435,0,0,0-1.843-2.2Z" transform="translate(-44.713 -103.103)"/>
    <path id="Path_601" data-name="Path 601" d="M151.562,143.434A1.434,1.434,0,0,0,153,144.868h18.01a1.434,1.434,0,0,0,0-2.868H153A1.434,1.434,0,0,0,151.562,143.434Z" transform="translate(-90.982 -104.253)"/>
    <path id="Path_602" data-name="Path 602" d="M151.562,167.434A1.434,1.434,0,0,0,153,168.868h27.31a1.434,1.434,0,0,0,0-2.868H153A1.434,1.434,0,0,0,151.562,167.434Z" transform="translate(-90.982 -122.516)"/>
    <path id="Path_603" data-name="Path 603" d="M60.347,79.434A1.434,1.434,0,0,0,58.912,78h-.478a1.434,1.434,0,1,0,0,2.868h.478A1.434,1.434,0,0,0,60.347,79.434Z" transform="translate(-19.024 -55.551)"/>
    <path id="Path_604" data-name="Path 604" d="M80.434,80.868h21.992a1.434,1.434,0,0,0,0-2.868H80.434a1.434,1.434,0,1,0,0,2.868Z" transform="translate(-35.765 -55.551)"/>
    <path id="Path_605" data-name="Path 605" d="M137.26,114.638l-14.245-14.247a1.434,1.434,0,0,0-2.028,0l-.927.927-.532-.532a23,23,0,0,0-7.21-33.869v-47.7a3.705,3.705,0,0,0-1.27-2.794L99.064,5.968A3.936,3.936,0,0,0,96.477,5H52.428A7.577,7.577,0,0,0,48.36,6.137a7.781,7.781,0,0,0-3.691,6.607v2.773H39.8a7.823,7.823,0,0,0-7.8,7.8V98.791a7.823,7.823,0,0,0,7.8,7.8H88.766a22.78,22.78,0,0,0,12.283,3.586h0a22.931,22.931,0,0,0,13.779-4.627l.528.5-.927.912a1.421,1.421,0,0,0,0,2.017l14.245,14.244a6.069,6.069,0,1,0,8.582-8.583ZM98.692,9.59l8.395,7.122H98.692ZM39.8,103.722h0a4.946,4.946,0,0,1-4.932-4.932V23.317A4.932,4.932,0,0,1,39.8,18.385H83.394V28.769A1.329,1.329,0,0,0,84.723,30.1H96.78V45.814a1.474,1.474,0,0,0,1.39,1.494,1.434,1.434,0,0,0,1.479-1.434V29.71a3.691,3.691,0,0,0-1.264-2.78L86.419,16.5a3.972,3.972,0,0,0-2.612-.98H47.538V12.871a5.049,5.049,0,0,1,1.009-3.088,4.871,4.871,0,0,1,3.884-1.916H95.824V18.25a1.33,1.33,0,0,0,1.33,1.33h12.295V65.563a23.153,23.153,0,0,0-9.8-1.554V55.914a1.434,1.434,0,1,0-2.868,0v8.45a23.164,23.164,0,0,0-6.437,2.253,1.429,1.429,0,0,0-1.018-.425H62.014a1.434,1.434,0,0,0,0,2.868H86.607A22.911,22.911,0,0,0,78.285,83.4H62.014a1.434,1.434,0,1,0,0,2.868h16c-.008.245-.013.49-.013.736a23.591,23.591,0,0,0,.119,2.37H62.013a1.434,1.434,0,0,0,0,2.868H78.6a22.963,22.963,0,0,0,6.156,11.117c.12.121.243.239.366.357ZM86.262,27.23V20.11l8.179,7.119Zm29.057,74.113a20.1,20.1,0,0,1-14.267,5.966h0a20.236,20.236,0,0,1-2.937-40.252,19.986,19.986,0,0,1,2.908-.215,20.2,20.2,0,0,1,14.3,34.5Zm1.7,2.284c.109-.1.217-.208.323-.315s.21-.222.316-.332l.368.369-.643.643Zm.452,4.334L122,103.435l1.248,1.248-4.525,4.525Zm17.756,13.231a3.2,3.2,0,0,1-4.525,0l-9.955-9.955,4.525-4.525,9.954,9.955a3.2,3.2,0,0,1,0,4.525Z" transform="translate(0 0)"/>
    <path id="Path_606" data-name="Path 606" d="M275.119,276.209a18.478,18.478,0,1,0,0,26.132A18.478,18.478,0,0,0,275.119,276.209Zm-2.032,24.1a15.609,15.609,0,1,1-13.31-26.482,15.411,15.411,0,0,1,2.25-.164,15.607,15.607,0,0,1,11.06,26.646Z" transform="translate(-160.999 -202.261)"/>
    <path id="Path_607" data-name="Path 607" d="M289.379,319.088c-.253-.346-6.278-8.476-14.022-8.476s-13.769,8.13-14.022,8.476a1.434,1.434,0,0,0,0,1.692c.253.346,6.278,8.476,14.022,8.476s13.769-8.13,14.022-8.476A1.434,1.434,0,0,0,289.379,319.088Zm-21.944,3.9a25.667,25.667,0,0,1-3.1-3.053,25.71,25.71,0,0,1,3.1-3.052A8.462,8.462,0,0,0,267.435,322.986Zm7.921,2.57a5.623,5.623,0,1,1,5.624-5.623,5.623,5.623,0,0,1-5.624,5.623Zm7.921-2.57a8.461,8.461,0,0,0,0-6.1,25.7,25.7,0,0,1,3.1,3.052,25.684,25.684,0,0,1-3.1,3.053Z" transform="translate(-174.304 -232.56)"/>
  </g>
</svg>
