<svg xmlns="http://www.w3.org/2000/svg" width="119.983" height="120" viewBox="0 0 119.983 120">
  <g id="dollar" transform="translate(-4.97 -4.996)">
    <path id="Path_608" data-name="Path 608" d="M232.814,213.525l-.041,0-.042,0a4.438,4.438,0,0,1-4.393-4.432,1.436,1.436,0,1,0-2.872,0,7.306,7.306,0,0,0,5.864,7.16v2.2a1.434,1.434,0,1,0,2.868,0v-2.2a7.3,7.3,0,0,0-1.428-14.462,4.434,4.434,0,1,1,4.436-4.435,1.432,1.432,0,0,0,2.864,0,7.314,7.314,0,0,0-5.872-7.16v-1.932a1.434,1.434,0,1,0-2.868,0V190.2a7.3,7.3,0,0,0,1.441,14.462,4.433,4.433,0,0,1,.044,8.866Z" transform="translate(-167.795 -138.374)"/>
    <path id="Path_609" data-name="Path 609" d="M138.827,101.991A36.808,36.808,0,1,0,175.635,138.8,36.849,36.849,0,0,0,138.827,101.991Zm1.43,2.9a33.62,33.62,0,0,1,21.518,8.928l-2.39,2.39a30.3,30.3,0,0,0-19.128-7.935Zm-2.868,0v3.383a30.291,30.291,0,0,0-19.124,7.935l-2.392-2.39a33.615,33.615,0,0,1,21.516-8.928Zm-23.541,10.958,2.39,2.39a30.3,30.3,0,0,0-7.935,19.128h-3.383a33.62,33.62,0,0,1,8.928-21.518Zm-8.928,24.386H108.3a30.3,30.3,0,0,0,7.935,19.125l-2.39,2.391A33.616,33.616,0,0,1,104.919,140.235Zm32.469,32.471a33.612,33.612,0,0,1-21.516-8.928l2.392-2.39a30.294,30.294,0,0,0,19.124,7.935Zm.52-6.232a27.719,27.719,0,1,1,20.49-8.1,27.765,27.765,0,0,1-20.49,8.1Zm2.348,6.232v-3.383a30.3,30.3,0,0,0,19.128-7.935l2.39,2.39A33.618,33.618,0,0,1,140.256,172.706Zm23.55-10.954-2.39-2.391a30.3,30.3,0,0,0,7.935-19.125h3.383A33.615,33.615,0,0,1,163.806,161.752Zm5.545-24.385a30.3,30.3,0,0,0-7.935-19.127l2.39-2.39a33.618,33.618,0,0,1,8.928,21.518Z" transform="translate(-73.853 -73.812)"/>
    <path id="Path_610" data-name="Path 610" d="M202.5,177.174A24.484,24.484,0,0,0,162.81,158.8a1.433,1.433,0,0,0,1.773,2.252,21.607,21.607,0,1,1-5.954,7.358,1.434,1.434,0,1,0-2.564-1.283,24.493,24.493,0,1,0,46.437,10.05Z" transform="translate(-113.044 -113.002)"/>
    <path id="Path_611" data-name="Path 611" d="M41.055,150.157a1.434,1.434,0,0,0-1.933.613,53.329,53.329,0,0,0-2.565,43.386,1.434,1.434,0,1,0,2.682-1.016,50.458,50.458,0,0,1,2.429-41.05A1.434,1.434,0,0,0,41.055,150.157Z" transform="translate(-21.427 -110.343)"/>
    <path id="Path_612" data-name="Path 612" d="M72.4,127.671c.267-.4.541-.8.815-1.181a1.434,1.434,0,1,0-2.338-1.662c-.29.406-.579.827-.86,1.248a1.434,1.434,0,1,0,2.384,1.595Z" transform="translate(-49.312 -90.732)"/>
    <path id="Path_613" data-name="Path 613" d="M392.666,84.138a1.384,1.384,0,0,0-1.049.432L379.356,97.294a1.429,1.429,0,0,0-.047,1.936,39.817,39.817,0,0,1,9.762,25.41,1.542,1.542,0,0,0,1.434,1.53h17.61a1.656,1.656,0,0,0,1.434-1.63A59.867,59.867,0,0,0,393.7,84.614,1.449,1.449,0,0,0,392.666,84.138Zm-.774,39.164a42.419,42.419,0,0,0-9.571-24.776l10.292-10.745A57.12,57.12,0,0,1,406.647,123.3Z" transform="translate(-284.598 -60.226)"/>
    <path id="Path_614" data-name="Path 614" d="M123.968,104.583a1.477,1.477,0,0,0-.611-.121H105.717a1.434,1.434,0,0,0-1.427,1.3,39.515,39.515,0,0,1-78.344,2.3,1.432,1.432,0,0,0-1.413-1.208h0a1.436,1.436,0,0,0-1.414,1.668A42.383,42.383,0,0,0,107,107.33h14.836A57.126,57.126,0,1,1,24.576,61.44a58.294,58.294,0,0,1,5.078-4.515l8.133,12.415A42.313,42.313,0,0,0,22.75,98.132a1.433,1.433,0,1,0,2.856.239A39.1,39.1,0,0,1,40.583,70.765a1.434,1.434,0,0,0,.313-1.914L31.229,54.1a1.52,1.52,0,0,0-.436-.449,1.434,1.434,0,0,0-1.646.05,61.081,61.081,0,0,0-6.6,5.715,60,60,0,1,0,102.269,46.581A1.438,1.438,0,0,0,123.968,104.583Z" transform="translate(0 -36.844)"/>
    <path id="Path_615" data-name="Path 615" d="M130.048,30.858a1.434,1.434,0,0,0,1.95.436,39.437,39.437,0,0,1,47.138,4.432,1.434,1.434,0,0,0,2-.067l12.232-12.7a1.434,1.434,0,0,0-.059-2.048A60.038,60.038,0,0,0,120.814,14.1a1.434,1.434,0,0,0-.437,2ZM152.613,7.865a56.885,56.885,0,0,1,37.658,14.173L180.017,32.683A42.307,42.307,0,0,0,131.7,28.14l-8.108-12.377a56.911,56.911,0,0,1,29.025-7.9Z" transform="translate(-87.644 0)"/>
  </g>
</svg>
