<svg xmlns="http://www.w3.org/2000/svg" width="62" height="62" viewBox="0 0 62 62">
  <g id="Group_1588" data-name="Group 1588" transform="translate(-1440 -161)">
    <circle id="Ellipse_61" data-name="Ellipse 61" cx="31" cy="31" r="31" transform="translate(1440 161)" fill="#fff"/>
    <g id="payment-24px" transform="translate(1456 177)">
      <path id="Path_278" data-name="Path 278" d="M0,0H30V30H0Z" fill="none"/>
      <path id="Path_279" data-name="Path 279" d="M24.5,4H4.5A2.481,2.481,0,0,0,2.013,6.5L2,21.5A2.491,2.491,0,0,0,4.5,24h20A2.491,2.491,0,0,0,27,21.5V6.5A2.491,2.491,0,0,0,24.5,4Zm0,17.5H4.5V14h20ZM24.5,9H4.5V6.5h20Z" transform="translate(0.5 1)"/>
    </g>
  </g>
</svg>
