<svg xmlns="http://www.w3.org/2000/svg" width="100" height="44.12" viewBox="0 0 100 44.12">
  <g id="Group_1557" data-name="Group 1557" transform="translate(-901.368 -598.383)">
    <path id="Path_569" data-name="Path 569" d="M906.133,627.787h6.151v4.331h-6.151v12.517h-4.765V614.317h12.6v4.331h-7.839Z" transform="translate(0 -2.132)" fill="#fff"/>
    <path id="Path_570" data-name="Path 570" d="M930.481,644.635a9.3,9.3,0,0,1-.433-3.724v-4.765c0-2.815-.954-3.855-3.119-3.855h-1.646v12.344h-4.764V614.317h7.189c4.938,0,7.06,2.3,7.06,6.974v2.382c0,3.118-1,5.111-3.119,6.107v.087c2.382,1,3.162,3.248,3.162,6.41v4.677a8.923,8.923,0,0,0,.519,3.681Zm-5.2-25.987v9.312h1.862c1.776,0,2.858-.78,2.858-3.2v-2.988c0-2.165-.736-3.119-2.425-3.119Z" transform="translate(-2.563 -2.132)" fill="#fff"/>
    <path id="Path_571" data-name="Path 571" d="M962.018,614.317h7.536c4.765,0,7.1,2.642,7.1,7.493v15.332c0,4.852-2.339,7.492-7.1,7.492h-7.536Zm4.764,4.331V640.3h2.685c1.516,0,2.425-.78,2.425-2.945V621.594c0-2.165-.91-2.946-2.425-2.946Z" transform="translate(-8.116 -2.132)" fill="#fff"/>
    <path id="Path_572" data-name="Path 572" d="M989.453,627.783h6.67v9.4c0,4.743-2.424,7.453-7.1,7.453s-7.1-2.709-7.1-7.453V621.77c0-4.742,2.425-7.453,7.1-7.453s7.1,2.71,7.1,7.453v2.88h-4.5v-3.175c0-2.119-.952-2.923-2.469-2.923s-2.469.8-2.469,2.923v16c0,2.117.953,2.88,2.469,2.88s2.469-.763,2.469-2.88v-5.462h-2.166Z" transform="translate(-10.779 -2.132)" fill="#fff"/>
    <path id="Path_573" data-name="Path 573" d="M1006.581,627.094h6.54v4.331h-6.54V640.3h8.229v4.331h-12.994V614.317h12.994v4.331h-8.229Z" transform="translate(-13.442 -2.132)" fill="#fff"/>
    <path id="Path_574" data-name="Path 574" d="M962.018,599.955h4.453v1.31h-1.506v7.859h-1.44v-7.859h-1.506Z" transform="translate(-7.65 -0.21)" fill="#fff"/>
    <path id="Path_575" data-name="Path 575" d="M988.235,609.123h-1.441v-9.169h1.441v3.929h1.637v-3.929h1.466v9.169h-1.466v-3.929h-1.637Z" transform="translate(-19.426 -0.21)" fill="#fff"/>
    <path id="Path_576" data-name="Path 576" d="M1013.721,603.819h1.978v1.31h-1.978v2.685h2.489v1.31h-3.93v-9.169h3.93v1.31h-2.489Z" transform="translate(-30.912 -0.21)" fill="#fff"/>
    <path id="Path_577" data-name="Path 577" d="M940.567,614.317v30.318h15.159V614.317Zm2.863,27.978H942.6V616.5h.829Z" transform="translate(-5.245 -2.132)" fill="#fec901"/>
    <path id="Path_578" data-name="Path 578" d="M940.526,598.383v12.273h15.23V598.383Zm2.9,10.136H942.6V600.9h.829Z" transform="translate(-5.24)" fill="#fec901"/>
  </g>
</svg>
