<svg xmlns="http://www.w3.org/2000/svg" width="113.7" height="120" viewBox="0 0 113.7 120">
  <g id="team-leader" transform="translate(-18.994 -5.725)">
    <path id="Path_616" data-name="Path 616" d="M268.647,455h-2.772a1.439,1.439,0,1,0,0,2.878h2.772a1.439,1.439,0,1,0,0-2.878Z" transform="translate(-186.569 -341.509)"/>
    <path id="Path_617" data-name="Path 617" d="M102.26,458H99.473a1.439,1.439,0,1,0,0,2.878h2.787a1.439,1.439,0,1,0,0-2.878Z" transform="translate(-60.081 -343.79)"/>
    <path id="Path_618" data-name="Path 618" d="M448.533,458h-2.787a1.439,1.439,0,1,0,0,2.878h2.787a1.439,1.439,0,1,0,0-2.878Z" transform="translate(-323.295 -343.79)"/>
    <path id="Path_619" data-name="Path 619" d="M359.178,320.878h2.787a1.439,1.439,0,0,0,0-2.878h-2.787a1.439,1.439,0,0,0,0,2.878Z" transform="translate(-257.491 -237.371)"/>
    <path id="Path_620" data-name="Path 620" d="M215.634,35.184a11.641,11.641,0,0,0,11.634-11.6v-7.7h.277a1.489,1.489,0,0,0,1.439-1.5,7.575,7.575,0,0,0-7.542-7.57,7.436,7.436,0,0,1-2.153-.338,13.82,13.82,0,0,0-3.711-.728A11.586,11.586,0,0,0,204,17.346v6.242a11.641,11.641,0,0,0,11.634,11.6Zm8.755-17.942a2.7,2.7,0,0,1-1.332-1.351h1.332Zm-17.51.106a8.711,8.711,0,0,1,8.7-8.717,11.8,11.8,0,0,1,2.885.6,10.331,10.331,0,0,0,2.985.5,4.653,4.653,0,0,1,4.431,3.28h-10.56a3.54,3.54,0,0,0-3.583,3.528,3.2,3.2,0,0,1-3.244,3.189h-1.613Zm0,5.259h1.613a6.082,6.082,0,0,0,6.122-6.067.66.66,0,0,1,.7-.649h4.769a5.781,5.781,0,0,0,4.3,4.441v3.256a8.755,8.755,0,0,1-17.51,0Z" transform="translate(-140.629 -0.025)"/>
    <path id="Path_621" data-name="Path 621" d="M265.875,169.878h2.772a1.439,1.439,0,1,0,0-2.878h-2.772a1.439,1.439,0,1,0,0,2.878Z" transform="translate(-186.569 -122.591)"/>
    <path id="Path_622" data-name="Path 622" d="M376.439,36.77A1.439,1.439,0,0,0,375,38.209v.855a1.439,1.439,0,0,0,2.878,0v-.855A1.439,1.439,0,0,0,376.439,36.77Z" transform="translate(-270.612 -23.599)"/>
    <path id="Path_623" data-name="Path 623" d="M376.439,58.311A1.439,1.439,0,0,0,375,59.75v5.573a1.439,1.439,0,0,0,2.878,0V59.75A1.439,1.439,0,0,0,376.439,58.311Z" transform="translate(-270.612 -39.973)"/>
    <path id="Path_624" data-name="Path 624" d="M124.356,106.055h-4.081a11.717,11.717,0,0,0,8.58-11.289v-9.34h.5a1.447,1.447,0,0,0,1.439-1.448,7.554,7.554,0,0,0-7.542-7.546,7.409,7.409,0,0,1-2.153-.325,13.859,13.859,0,0,0-3.73-.722,11.538,11.538,0,0,0-6.629,2.1c-1.782-3.6-4.8-5.253-7.154-5.253H99.51a11.586,11.586,0,0,0,8.716-11.254V51.605h.369a1.432,1.432,0,0,0,1.439-1.431,7.546,7.546,0,0,0-7.541-7.537h-.024v-11.9h23.459a1.522,1.522,0,0,0,1.2-.556,1.447,1.447,0,0,0-.06-1.861l-7.623-8.466,7.593-8.431a1.564,1.564,0,0,0,.251-.365A1.5,1.5,0,0,0,126,8.909H102.555a3.446,3.446,0,0,0-.961-2.239,3.244,3.244,0,0,0-2.428-.942,3.33,3.33,0,0,0-3.173,3.358V41.612a11.575,11.575,0,0,0-6.554,2.448,9.149,9.149,0,0,0-9.017-8.046H68.09a9.253,9.253,0,0,0-8.738,6.444q-.272-.061-.542-.142a13.9,13.9,0,0,0-3.741-.72,11.619,11.619,0,0,0-11.606,11.6V60.98a11.586,11.586,0,0,0,8.716,11.254h-3.34A9.193,9.193,0,0,0,41.092,76.5a7.581,7.581,0,0,0-.894-.061,7.42,7.42,0,0,1-2.154-.327,13.534,13.534,0,0,0-3.673-.722A11.558,11.558,0,0,0,22.833,86.98v7.786a11.717,11.717,0,0,0,8.58,11.289h-3.34a9.049,9.049,0,0,0-9.077,9.1v9.193a1.314,1.314,0,0,0,1.354,1.374H131.338a1.314,1.314,0,0,0,1.354-1.374v-8.072C132.692,111.62,129.022,106.055,124.356,106.055ZM102.469,11.787h20.3l-6.327,7.062a1.477,1.477,0,0,0,0,1.955l6.327,7.054h-20.3Zm23.507,75.087a2.6,2.6,0,0,1-1.1-1.448h1.1Zm-17.27.106a8.707,8.707,0,0,1,8.693-8.717,11.778,11.778,0,0,1,2.882.6,10.265,10.265,0,0,0,2.983.456,4.609,4.609,0,0,1,4.43,3.233h-10.56a3.54,3.54,0,0,0-3.582,3.528,3.2,3.2,0,0,1-3.244,3.188h-1.6Zm0,5.163h1.6a6.082,6.082,0,0,0,6.123-6.067.66.66,0,0,1,.7-.65H121.9a6.018,6.018,0,0,0,4.074,4.539v4.8a8.635,8.635,0,0,1-17.27,0Zm-5.114-17.031c2.089,0,4.009,2.157,4.935,4.426a11.485,11.485,0,0,0-2.7,7.442v7.786a11.559,11.559,0,0,0,.2,2.414H85.007a11.67,11.67,0,0,0,.715-2.821A7.347,7.347,0,1,0,85.4,79.668l-1.23,0a5.5,5.5,0,0,1,5.453-4.557ZM85.033,82.548H85.4a4.459,4.459,0,0,1,.275,8.907V86.51A10.452,10.452,0,0,0,85.033,82.548Zm20.315-29.461a2.883,2.883,0,0,1-1.241-1.482h1.241ZM98.871,9.029a.36.36,0,1,1,.72,0V42.1q-.373-.1-.72-.182ZM87.837,53.193a8.75,8.75,0,0,1,8.744-8.717,11.922,11.922,0,0,1,2.908.6,10.324,10.324,0,0,0,3,.439,4.61,4.61,0,0,1,4.443,3.215H96.368a3.643,3.643,0,0,0-3.583,3.648,3.3,3.3,0,0,1-3.244,3.308h-1.7Zm0,5.368h1.7a6.185,6.185,0,0,0,6.122-6.187.764.764,0,0,1,.7-.769h4.769a5.835,5.835,0,0,0,4.21,4.573v4.8a8.755,8.755,0,0,1-17.51,0Zm5.87,13.672H89.626a8.394,8.394,0,0,0-7.991,5.722,10.833,10.833,0,0,0-6.69-2.363h-1.38a10.816,10.816,0,0,0-4.421.992,9.055,9.055,0,0,0-7.824-4.35h-3.34a11.579,11.579,0,0,0,8.388-8.4H85.318A11.582,11.582,0,0,0,93.707,72.234ZM79.867,83.906a1.4,1.4,0,0,0-1.012-.924,1.42,1.42,0,0,0-1.321.406,15.858,15.858,0,0,1-11.179,4.677H65.53V86.51a8.094,8.094,0,0,1,8.036-8.039h1.38A7.939,7.939,0,0,1,82.8,86.51v1.515c-1.439-.627-2.631-3.276-2.933-4.119ZM82.8,91v2.1a7.836,7.836,0,0,1-7.854,7.919h-1.38A7.99,7.99,0,0,1,65.53,93.1V90.943h.824a18.811,18.811,0,0,0,11.721-4.161,12.572,12.572,0,0,0,.809,1.406A6.371,6.371,0,0,0,82.8,91ZM63.851,53.087a2.147,2.147,0,0,1-1.273-1.482h1.273ZM68.09,38.892H80.422a6.289,6.289,0,0,1,6.216,6.349V47.2a11.494,11.494,0,0,0-1.679,5.992V60.96H66.729V51.605h.336A1.432,1.432,0,0,0,68.5,50.174a7.547,7.547,0,0,0-6.2-7.416A6.338,6.338,0,0,1,68.09,38.892ZM46.34,53.193a8.736,8.736,0,0,1,8.728-8.717,11.878,11.878,0,0,1,2.9.6,10.3,10.3,0,0,0,2.992.439A4.605,4.605,0,0,1,65.4,48.727H54.839a3.643,3.643,0,0,0-3.583,3.648,3.3,3.3,0,0,1-3.244,3.308H46.34Zm0,7.787V58.561h1.672a6.184,6.184,0,0,0,6.122-6.187.764.764,0,0,1,.7-.769h4.769a5.874,5.874,0,0,0,4.243,4.573v4.8a8.755,8.755,0,0,1-17.51,0Zm2.5,14.132H61.32A6.228,6.228,0,0,1,66.7,78.129a11.1,11.1,0,0,0-2.567,3.085,1.4,1.4,0,0,0-1.187-.586H60.157a1.439,1.439,0,0,0,0,2.878h2.787c.078,0,.122-.053.2-.065a10.522,10.522,0,0,0-.489,3.067V93.1A10.746,10.746,0,0,0,63.5,97.18H45.662a11.56,11.56,0,0,0,.2-2.414v-9.34H46.3a1.447,1.447,0,0,0,1.439-1.448,7.53,7.53,0,0,0-3.792-6.53A6.306,6.306,0,0,1,48.838,75.112ZM25.712,86.98a8.678,8.678,0,0,1,8.659-8.717,11.689,11.689,0,0,1,2.865.6,10.2,10.2,0,0,0,2.974.456,4.6,4.6,0,0,1,4.423,3.233H34.074a3.54,3.54,0,0,0-3.583,3.528,3.2,3.2,0,0,1-3.244,3.188H25.712Zm17.27-1.554v1.448a2.694,2.694,0,0,1-1.17-1.448Zm-17.27,9.34V92.143h1.535a6.082,6.082,0,0,0,6.122-6.067.66.66,0,0,1,.7-.65h4.769a5.709,5.709,0,0,0,4.139,4.539v4.8a8.635,8.635,0,0,1-17.27,0ZM46.82,122.845H21.874v-7.689a6.167,6.167,0,0,1,6.2-6.224H40.556a6.223,6.223,0,0,1,6.264,6.224Zm39.818,0H61.692v-8.581a6.4,6.4,0,0,1,6.4-6.291H80.422a6.239,6.239,0,0,1,6.216,6.291Zm15.351-8.43v8.43H89.516v-8.581a9.12,9.12,0,0,0-9.094-9.169H68.09a9.276,9.276,0,0,0-9.276,9.169v8.581H49.7v-7.689a9.1,9.1,0,0,0-9.143-9.1h-3.34a12.21,12.21,0,0,0,7.425-6H65.226a10.741,10.741,0,0,0,8.339,3.838h1.38a10.741,10.741,0,0,0,8.34-3.838h23.762a12.21,12.21,0,0,0,7.425,6h-4.08a8.362,8.362,0,0,0-8.4,8.361Zm27.825,8.43H104.868v-8.43a5.481,5.481,0,0,1,5.523-5.483h13.965c2.854,0,5.458,4.111,5.458,7.345Z"/>
  </g>
</svg>
