<svg id="language_black_24dp" xmlns="http://www.w3.org/2000/svg" width="22" height="22" viewBox="0 0 22 22">
  <path id="Path_585" data-name="Path 585" d="M0,0H22V22H0Z" fill="none"/>
  <path id="Path_586" data-name="Path 586" d="M11.158,2a9.167,9.167,0,1,0,9.176,9.167A9.162,9.162,0,0,0,11.158,2ZM17.51,7.5h-2.7a14.345,14.345,0,0,0-1.265-3.263A7.361,7.361,0,0,1,17.51,7.5ZM11.167,3.87A12.913,12.913,0,0,1,12.918,7.5h-3.5A12.913,12.913,0,0,1,11.167,3.87ZM4.072,13a7.17,7.17,0,0,1,0-3.667h3.1a15.139,15.139,0,0,0-.128,1.833A15.139,15.139,0,0,0,7.17,13Zm.752,1.833h2.7A14.345,14.345,0,0,0,8.793,18.1a7.321,7.321,0,0,1-3.969-3.263ZM7.528,7.5h-2.7A7.321,7.321,0,0,1,8.793,4.237,14.345,14.345,0,0,0,7.527,7.5Zm3.639,10.963a12.913,12.913,0,0,1-1.751-3.63h3.5A12.913,12.913,0,0,1,11.167,18.463ZM13.312,13H9.022a13.487,13.487,0,0,1-.147-1.833,13.369,13.369,0,0,1,.147-1.833h4.29a13.369,13.369,0,0,1,.147,1.833A13.487,13.487,0,0,1,13.312,13Zm.229,5.1a14.345,14.345,0,0,0,1.265-3.263h2.7A7.361,7.361,0,0,1,13.541,18.1ZM15.163,13a15.139,15.139,0,0,0,.128-1.833,15.139,15.139,0,0,0-.128-1.833h3.1a7.17,7.17,0,0,1,0,3.667Z" transform="translate(-0.167 -0.167)" fill="#0088cc"/>
</svg>
